<svg xmlns="http://www.w3.org/2000/svg" viewBox="0 0 285.35 40"><defs><style>.cls-1{fill:#111211;}.cls-2{fill:#fff;}</style></defs><title>Asset 1</title><g id="Layer_2" data-name="Layer 2"><g id="tools"><rect class="cls-1" width="40" height="40"/><path class="cls-2" d="M22,13v4H32v5H22V33L14.51,20.5,22,8H33v5ZM10,22.17V33h5.71ZM15.71,8H10v9.83Z"/><path class="cls-1" d="M54,18.68,59.42,12h3.9l-5.5,6.52,6,9.38H59.7l-4.25-6.56L54,23.16v4.79H50.45V12H54Z"/><path class="cls-1" d="M74.87,27.95l-5.5-10.64V27.95H66.12V12h4.12l5.29,10.79V12h3.25v15.9Z"/><path class="cls-1" d="M87.29,25.7h1.6v2.25H82.2V25.7h1.6V14.3H82.2V12h6.69V14.3h-1.6Z"/><path class="cls-1" d="M98.37,19.87h5.78v8.34h-2.21l-.35-1.86a5,5,0,0,1-4,1.86c-4,0-6.33-2.71-6.33-7.86,0-6.07,2.95-8.58,7-8.58,3.49,0,5.5,2.06,5.52,5.81l-3.44.26c0-2.62-1.06-3.29-2.32-3.29-1.69,0-3.05,1.32-3.05,5.65,0,3.9,1.28,5.26,3.18,5.26a2.84,2.84,0,0,0,2.9-3.05H98.37Z"/><path class="cls-1" d="M120.25,27.95h-3.53V21.49h-5.42v6.46H107.8V12h3.51v6.56h5.42V12h3.53Z"/><path class="cls-1" d="M127.06,14.89h-4.2V12h11.94v2.84h-4.2V27.95h-3.53Z"/><path class="cls-1" d="M152.3,21.6h-5.11v6.33h-3.51V12h9.38v2.84h-5.87v4h5.11Z"/><path class="cls-1" d="M155.28,20c0-5.29,2.73-8.3,7-8.3s6.56,2.95,6.56,8c0,5.35-2.34,8.4-6.89,8.4S155.28,25.22,155.28,20Zm9.92-.19c0-3.68-1-5.29-3-5.29S159,16.14,159,19.94s1,5.5,3.14,5.5S165.2,23.79,165.2,19.85Z"/><path class="cls-1" d="M180.62,12h3.47v10.2c0,3.79-2,6-6.35,6-4.57,0-6.15-2.3-6.15-6.09V12H175v9.14c0,2.77.54,4.22,2.82,4.22s2.77-1.34,2.77-4.2Z"/><path class="cls-1" d="M196.61,27.93l-5.5-10.64V27.93h-3.25V12H192l5.29,10.79V12h3.25v15.9Z"/><path class="cls-1" d="M204.37,27.93V12h3.9c6,0,8.34,2.64,8.34,7.63,0,5.52-2.32,8.28-8.38,8.28Zm4.35-2.86c2.79,0,4.27-1.3,4.27-5.2,0-3.75-1.34-5-4.27-5h-.84v10.2Z"/><path class="cls-1" d="M227.27,12l5.35,15.9H229l-1.21-3.66h-5.5l-1.17,3.66h-3.49L222.89,12ZM225,15.26h0L223,21.58h4Z"/><path class="cls-1" d="M236.84,14.87h-4.2V12h11.94v2.84h-4.2V27.93h-3.53Z"/><path class="cls-1" d="M252.35,25.68H254v2.25h-6.69V25.68h1.6V14.28h-1.6V12H254v2.25h-1.6Z"/><path class="cls-1" d="M256.41,20c0-5.29,2.73-8.3,7-8.3s6.56,2.95,6.56,8c0,5.35-2.34,8.4-6.89,8.4S256.41,25.22,256.41,20Zm9.92-.19c0-3.68-1-5.29-3-5.29s-3.25,1.58-3.25,5.37,1,5.5,3.14,5.5S266.33,23.79,266.33,19.85Z"/><path class="cls-1" d="M281.45,27.93l-5.5-10.64V27.93H272.7V12h4.12l5.29,10.79V12h3.25v15.9Z"/></g></g></svg>