<svg xmlns="http://www.w3.org/2000/svg" viewBox="0 0 200 62"><defs><style>.cls-1{fill:#d64220;}</style></defs><title>Asset 1</title><g id="Layer_2" data-name="Layer 2"><g id="tools"><path class="cls-1" d="M19.08,25.58c0-1.81-.53-2.58-2.47-2.58H12v5h5A2.38,2.38,0,0,0,19.08,25.58Z"/><path class="cls-1" d="M17.19,33H12v6h4.7c2.75,0,4.05-1.14,4.05-3.08C20.75,33.81,19.46,33,17.19,33Z"/><path class="cls-1" d="M0,6V56H32V6ZM17.85,44H6V18H17.26c5.32,0,8.42,2.51,8.42,6.65a6.31,6.31,0,0,1-3.55,5.47c2.07.74,4.28,2.51,4.28,6.5S23.17,44,17.85,44Z"/><path class="cls-1" d="M72,0V18H83c5,0,8.85,2.22,8.85,7.39a8.38,8.38,0,0,1-4.57,7.68L93,43.56V44H85.51L81,35H78v9H72V62h56V0Zm51,44h-7.11L106,28.86V44H99V18h7.11L116,33.33V18h7Z"/><path class="cls-1" d="M85,26.42C85,23.89,83.81,23,81.13,23H78v7h4.62A3.93,3.93,0,0,0,85,26.42Z"/><polygon class="cls-1" points="43.35 34 49.31 34 46.37 23.87 43.35 34"/><polygon class="cls-1" points="41 13 41 24.36 43.12 18 50.91 18 59 43.63 59 44 52.23 44 50.98 40 42.16 40 41 43.72 41 49 63 49 63 13 41 13"/><polygon class="cls-1" points="137 13 137 18 154 18 154 23 144 23 144 28 153 28 153 33 144 33 144 39 155 39 155 44 137 44 137 49 159 49 159 13 137 13"/><path class="cls-1" d="M178.85,36.39c0-1.64-.75-2.16-3.43-3l-3-.89A9.72,9.72,0,0,1,168,30v7.44a16.74,16.74,0,0,0,6.38,1.31C177.81,38.78,178.85,37.88,178.85,36.39Z"/><path class="cls-1" d="M168,6V20.19c1.85-1.89,5-2.9,9-2.9,2.08,0,5.49.75,7,1.79V24h-.59c-1.48-.9-4.6-1.34-6.68-1.34s-3.86.6-3.86,2.09.93,1.94,1.93,2.24l3,.89c3.41,1,7.72,2.24,7.72,8.2,0,4.92-3.71,8-11.13,8a18.72,18.72,0,0,1-6.35-1.2V56h32V6Z"/></g></g></svg>