<svg xmlns="http://www.w3.org/2000/svg" xmlns:xlink="http://www.w3.org/1999/xlink" version="1.1" id="Layer_1" x="0px" y="0px" width="20px" height="20px" viewBox="0 0 20 20" enable-background="new 0 0 20 20" xml:space="preserve"><path fill="#B1B1B1" d="M18.289 16.733l-5.116-5.116c0.716-1.021 1.139-2.264 1.139-3.605 0-3.48-2.819-6.3-6.3-6.3 -3.479 0-6.3 2.82-6.3 6.3 0 3.479 2.82 6.299 6.3 6.299 1.343 0 2.584-0.423 3.606-1.138l5.116 5.116L18.289 16.733zM3.351 8.011c0-2.57 2.091-4.661 4.66-4.661s4.66 2.09 4.66 4.661c0 2.569-2.091 4.66-4.66 4.66S3.351 10.581 3.351 8.011z"/></svg>
