<svg viewBox="0 0 20 20" aria-label="pinterest"><path fill="currentColor" d="M10 0C4.483 0 0 4.476 0 10a9.996 9.996 0 0 0 5.986 9.156c-.027-.693 0-1.534.176-2.296.195-.81 1.289-5.448 1.289-5.448s-.323-.636-.323-1.583c0-1.478.857-2.587 1.924-2.587.917 0 1.348.684 1.348 1.503 0 .914-.583 2.282-.879 3.546-.255 1.065.527 1.929 1.582 1.929 1.896 0 3.165-2.435 3.165-5.319 0-2.189-1.471-3.83-4.161-3.83-3.028 0-4.922 2.261-4.922 4.787 0 .869.253 1.482.664 1.963.175.215.208.304.136.557-.04.184-.157.624-.195.8-.077.253-.274.342-.508.253-1.394-.573-2.051-2.101-2.051-3.82 0-2.84 2.402-6.249 7.149-6.249 3.825 0 6.33 2.765 6.33 5.729 0 3.921-2.174 6.851-5.392 6.851-1.076 0-2.091-.58-2.443-1.242 0 0-.586 2.302-.703 2.746-.215.772-.624 1.543-1.01 2.144A9.93 9.93 0 0 0 10 20c5.517 0 10-4.476 10-10S15.517 0 10 0z"/></svg>
