<svg viewBox="0 0 20 20" aria-label="instagram"><path fill="currentColor" d="M10 1.802c2.67 0 2.986.01 4.041.058.975.044 1.504.207 1.857.344.467.181.8.398 1.15.748s.567.683.748 1.15c.137.352.3.882.344 1.857.048 1.055.058 1.371.058 4.041s-.01 2.986-.058 4.041c-.044.975-.207 1.504-.344 1.857-.181.467-.398.8-.748 1.15-.35.35-.683.567-1.15.748-.352.137-.882.3-1.857.344-1.054.048-1.371.058-4.041.058s-2.987-.01-4.041-.058c-.975-.044-1.504-.207-1.857-.344a3.092 3.092 0 0 1-1.15-.748 3.092 3.092 0 0 1-.748-1.15c-.137-.352-.3-.882-.344-1.857-.048-1.055-.058-1.371-.058-4.041s.01-2.986.058-4.041c.044-.975.207-1.504.344-1.857.181-.467.398-.8.748-1.15s.683-.567 1.15-.748c.352-.137.882-.3 1.857-.344C7.014 1.812 7.33 1.802 10 1.802M10 0C7.284 0 6.944.012 5.877.06 4.813.109 4.086.278 3.45.525c-.658.256-1.216.597-1.772 1.153S.781 2.792.525 3.45C.278 4.086.109 4.813.06 5.877.012 6.944 0 7.284 0 10s.012 3.056.06 4.123c.049 1.064.218 1.791.465 2.427.256.658.597 1.215 1.153 1.771s1.114.898 1.771 1.153c.636.247 1.363.416 2.427.465C6.944 19.989 7.284 20 10 20s3.056-.011 4.123-.06c1.064-.049 1.791-.218 2.427-.465.658-.256 1.215-.597 1.771-1.153s.898-1.114 1.153-1.771c.247-.636.416-1.363.465-2.427.049-1.068.061-1.408.061-4.124s-.012-3.056-.06-4.123c-.049-1.064-.218-1.791-.465-2.427-.256-.658-.597-1.215-1.153-1.771S17.208.781 16.551.526C15.915.279 15.188.11 14.124.061 13.056.012 12.716 0 10 0z"/><path fill="currentColor" d="M10 4.865a5.135 5.135 0 1 0 0 10.27 5.135 5.135 0 0 0 0-10.27zm0 8.468a3.333 3.333 0 1 1 0-6.665 3.333 3.333 0 0 1 0 6.665z"/><circle fill="currentColor" cx="15.338" cy="4.662" r="1.2"/></svg>
