<?xml version="1.0" encoding="utf-8"?>
<!-- Generator: Adobe Illustrator 21.1.0, SVG Export Plug-In . SVG Version: 6.00 Build 0)  -->
<svg version="1.1" id="Calque_1" xmlns="http://www.w3.org/2000/svg" xmlns:xlink="http://www.w3.org/1999/xlink" x="0px" y="0px"
	 viewBox="0 0 20 18" style="enable-background:new 0 0 20 18;" xml:space="preserve">
<title>BF_LOGO_medium_screen</title>
<g>
	<path d="M16,10H4v1l0,0v7h12v-7l0,0V10z M14,16H6v-4h8V16z"/>
	<path d="M18,6H2C0.9,6,0,6.9,0,8v5c0,1.1,0.9,2,2,2h1v-2H2V8h3h10h3v5h-1v2h1c1.1,0,2-0.9,2-2V8C20,6.9,19.1,6,18,6z"/>
</g>
<polygon points="14,0 6,0 4,0 4,2 4,4 6,4 6,2 14,2 14,4 16,4 16,2 16,0 "/>
</svg>
