<svg viewBox="0 0 21 20" aria-label="twitter"><path fill="currentColor" d="M21 3.249a8.403 8.403 0 0 1-2.473.705 4.46 4.46 0 0 0 1.892-2.476 8.452 8.452 0 0 1-2.738 1.088 4.227 4.227 0 0 0-3.143-1.41c-2.376 0-4.306 1.998-4.306 4.467 0 .345.035.687.112 1.012C6.76 6.446 3.586 4.674 1.46 1.973a4.566 4.566 0 0 0-.585 2.245c0 1.551.764 2.909 1.919 3.715a4.183 4.183 0 0 1-1.952-.558v.04c0 2.181 1.484 3.983 3.454 4.391a4.088 4.088 0 0 1-1.134.157 4.32 4.32 0 0 1-.807-.075c.549 1.774 2.138 3.063 4.023 3.097a8.46 8.46 0 0 1-6.379 1.848 11.877 11.877 0 0 0 6.604 2.007c7.923 0 12.256-6.803 12.256-12.703 0-.19-.003-.387-.009-.577A8.974 8.974 0 0 0 21 3.249z"/></svg>
