<svg viewBox="0 0 23 16" aria-label="YouTube"><path fill="currentColor" d="M22.77 3.452s-.225-1.568-.914-2.258C20.981.288 20.001.283 19.551.23 16.332 0 11.504 0 11.504 0h-.01S6.666 0 3.447.23c-.45.053-1.43.058-2.305.964-.69.69-.914 2.258-.914 2.258S.008 5.232 0 7.041v1.912c.008 1.809.229 3.589.229 3.589s.224 1.568.914 2.258c.875.906 2.024.877 2.536.972 1.687.16 8.14.227 8.14.227 1.115-.006 5-.041 7.732-.236.45-.053 1.43-.057 2.305-.964.69-.69.914-2.258.914-2.258s.23-1.84.23-3.681V7.134c0-1.841-.23-3.682-.23-3.682zM8.999 12.001v-8l7 4-7 4z"/></svg>
