<svg xmlns="http://www.w3.org/2000/svg" width="146" height="45" viewBox="0 0 146 45"><title>Barnes</title><path d="M15.446 18.777c0-1.444-1-1.777-2.556-1.777H10v4h4a2.4 2.4 0 0 0 1.446-2.223zM13.46 24H10v4h3.134c1.836 0 2.7-.757 2.7-2.054C15.837 24.542 14.97 24 13.46 24z"/><path d="M0 4v36h23V4zm14.393 28H5V13h8.96c3.887 0 6.156 1.835 6.156 4.857a4.61 4.61 0 0 1-2.593 4 4.6 4.6 0 0 1 3.13 4.743c0 3.025-2.374 5.4-6.26 5.4zM52 0v13h8.356c3.823 0 6.745 1.62 6.745 5.4a6.1 6.1 0 0 1-3.484 5.613L68 31.676V32h-5.4l-3.353-6H57v6h-5v13h41V0zm37 32h-4.935L77 20.934V32h-5V13h4.935L84 24.2V13h5z"/><path d="M62 19.446c0-1.81-.85-2.446-2.765-2.446H57v5h3.3a2.81 2.81 0 0 0 1.7-2.554z"/><g><path d="M31.596 25h4.345l-2.144-7.387-2.2 7.387"/><path d="M30 9v8.64L31.53 13h5.628L43 31.682V32h-4.885l-.903-3H30.84L30 31.79V35h16V9H30"/></g><path d="M100 9v4h12v4h-7v3h6v4h-6v4h8v4h-13v3h16V9h-16"/><g><path d="M130.277 26.526c0-1.2-.5-1.575-2.3-2.172l-2-.65A6.4 6.4 0 0 1 123 21.885v5.42a10.457 10.457 0 0 0 4.278.958c2.3 0 3-.65 3-1.738z"/><path d="M123 4v11.227c1.272-1.375 3.448-2.116 6.205-2.116a9.934 9.934 0 0 1 4.795 1.3V18h-.408a10.274 10.274 0 0 0-4.592-.98c-1.43 0-2.653.436-2.653 1.522a1.554 1.554 0 0 0 1.327 1.63l2.04.65c2.346.76 5.3 1.63 5.3 5.976 0 3.585-2.55 5.866-7.65 5.866A12.23 12.23 0 0 1 123 31.79V40h23V4z"/></g></svg>
