<svg xmlns="http://www.w3.org/2000/svg" width="121" height="37" viewBox="0 0 121 37"><title>Barnes</title><path d="M12.084 15.333c0-1.083-.75-1.333-1.917-1.333H8v3h3a1.8 1.8 0 0 0 1.084-1.667zM10.594 20H8v3h2.35c1.378 0 2.028-.568 2.028-1.54 0-1.054-.65-1.46-1.784-1.46z"/><path d="M0 4v29h19V4zm11.91 22H4V10h7.546c3.272 0 5.183 1.545 5.183 4.09a3.882 3.882 0 0 1-2.184 3.364 3.877 3.877 0 0 1 2.637 4c0 2.546-2 4.546-5.273 4.546zM44 0v10h6.79c3.105 0 5.522 1.63 5.522 4.813a4.8 4.8 0 0 1-2.754 4.633L58.125 26h-5.117l-3.023-5H47v5h-3v11h34V0zm30 26h-4.348L64 16.682V26h-4V10h4.348L70 19.43V10h4z"/><path d="M52.042 15.446c0-1.383-.858-2.446-2.79-2.446H47v5h3.07c1.185 0 1.972-1.25 1.972-2.554z"/><g><path d="M26.308 21h3.617l-1.786-6.15L26.307 21"/><path d="M25 8v6.863L26.294 11h4.763L36 26.555V27h-4.28l-.77-3h-5.432L25 26.2V30h13V8H25"/></g><path d="M83 8v3h10v3h-6v3h5v3h-5v4h6v3H83v3h13V8H83"/><g><path d="M108.06 22.086c0-1-.417-1.31-1.916-1.808l-1.662-.542c-.815-.27-1.773-.678-1.482-1.513v4.514c-.106.45 1.324.8 2.562.8 1.914-.003 2.497-.546 2.497-1.45z"/><path d="M103 4v8.69a6.712 6.712 0 0 1 5.077-1.76A8.02 8.02 0 0 1 112 12.014V15h-.334a8.284 8.284 0 0 0-3.756-.815c-1.17 0-2.17.362-2.17 1.267a1.288 1.288 0 0 0 1.084 1.357l1.67.54c1.918.634 4.34 1.358 4.34 4.976 0 2.985-2.086 4.884-6.26 4.884a9.855 9.855 0 0 1-3.574-.728V33h18V4z"/></g></svg>
