<?xml version="1.0" encoding="utf-8"?>
<!-- Generator: Adobe Illustrator 26.0.2, SVG Export Plug-In . SVG Version: 6.00 Build 0)  -->
<svg xmlns="http://www.w3.org/2000/svg" width="200" height="62" viewBox="0 0 200 62" fill="currentColor" aria-label="Barnes">
<!-- <svg version="1.1" id="Layer_1" xmlns="http://www.w3.org/2000/svg" xmlns:xlink="http://www.w3.org/1999/xlink" x="0px" y="0px" -->
	 viewBox="0 0 308.87 148.77" style="enable-background:new 0 0 308.87 148.77;" xml:space="preserve">
	 <title>Barnes 100</title>
	 <g>
	<path d="M55.1,34.42c0-2.44-1.69-3-4.32-3H45.9v6.76h6.75C54.53,37.43,55.1,35.55,55.1,34.42z"/>
	<path d="M51.9,44.36h-6v6.95h5.44c3.18,0,4.69-1.32,4.69-3.57C56.03,45.31,54.53,44.36,51.9,44.36z"/>
	<path d="M68.66,10.18H28.88v62.63h39.78V10.18z M53.6,57.87H37.27V24.86h15.58c6.75,0,10.69,3.19,10.69,8.44
		c0,3.01-2.06,5.82-4.5,6.95c2.62,0.93,5.44,3.19,5.44,8.25C64.48,53.75,60.35,57.87,53.6,57.87z"/>
	<polygon points="80.04,32.87 82.75,24.86 92.68,24.86 103,57.12 103,57.87 94.37,57.87 92.78,52.43 81.52,52.43 80.04,57.49 
		80.04,64.01 107.64,64.01 107.64,18.98 80.04,18.98 	"/>
	<polygon points="83.45,46.06 90.95,46.06 87.25,33.3 	"/>
	<path d="M135.79,35.74c0-3.19-1.5-4.31-4.88-4.31h-3.94v8.82h5.82C134.86,39.3,135.79,37.43,135.79,35.74z"/>
	<path d="M190.1,2.68h-71.07v22.18h13.94c6.38,0,11.25,2.81,11.25,9.38c0,4.31-2.06,7.69-5.82,9.75l7.31,13.33v0.56h-8.82l-6-11.25
		h-3.94v11.25h-7.94v22.44h71.07V2.68z M183.39,57.87h-8.63l-12.19-19.22v19.22h-8.63V24.86h8.63l12.19,19.46V24.86h8.63V57.87z"/>
	<polygon points="201.48,24.86 223.34,24.86 223.34,31.42 209.65,31.42 209.65,37.43 221.47,37.43 221.47,44.18 209.65,44.18 
		209.65,51.31 223.71,51.31 223.71,57.87 201.48,57.87 201.48,64.01 228.96,64.01 228.96,18.98 201.48,18.98 	"/>
	<path d="M253.98,48.47c0-2.06-0.94-2.72-4.32-3.74l-3.75-1.13c-1.84-0.56-4-1.41-5.59-3.14v9.36c2.02,0.94,5.24,1.65,8.03,1.65
		C252.66,51.48,253.98,50.35,253.98,48.47z"/>
	<path d="M240.32,28.12c2.34-2.38,6.34-3.66,11.41-3.66c2.62,0,6.94,0.94,8.81,2.26v6.19h-0.75c-1.88-1.13-5.81-1.69-8.44-1.69
		c-2.62,0-4.88,0.75-4.88,2.63c0,1.88,1.17,2.43,2.44,2.82l3.75,1.12c4.32,1.32,9.76,2.81,9.76,10.32c0,6.19-4.69,10.13-14.07,10.13
		c-2.26,0-5.68-0.53-8.03-1.5v16.07h40.03V10.16h-40.03V28.12z"/>
	<path d="M286.08,125.66v-2.63h-1.85v16.43h1.85v-11.47c0.78-2.11,2.37-3.55,4.37-3.55c0.59,0,1.07,0.11,1.52,0.3v-1.81
		c-0.37-0.11-0.81-0.22-1.44-0.22C288.48,122.7,286.82,124.03,286.08,125.66z"/>
	<path d="M55.28,122.7c-4.48,0-7.25,3.66-7.25,8.55c0,5.11,2.96,8.55,7.29,8.55c3.44,0,5.73-2.07,6.36-5.11H59.9
		c-0.52,2.18-2.26,3.48-4.59,3.48c-3.18,0-5.44-2.59-5.48-6.77h12.1v-0.67C61.94,126.07,59.64,122.7,55.28,122.7z M49.91,129.95
		c0.37-3.44,2.41-5.62,5.37-5.62c3.26,0,4.7,2.74,4.81,5.62H49.91z"/>
	<rect x="42.1" y="115.41" width="1.85" height="24.05"/>
	<polygon points="240.79,128.03 233.61,116.74 231.54,116.74 239.79,129.77 239.79,139.46 241.68,139.46 241.68,129.77 
		249.97,116.74 247.93,116.74 	"/>
	<path d="M212.74,116.41c-5.03,0-8.36,4.77-8.36,11.69c0,6.92,3.33,11.69,8.36,11.69c5,0,8.33-4.77,8.33-11.69
		C221.07,121.18,217.74,116.41,212.74,116.41z M212.74,138.06c-4.03,0-6.47-4.11-6.47-9.95c0-5.85,2.44-9.95,6.47-9.95
		c4.03,0,6.48,4.11,6.48,9.95C219.22,133.95,216.78,138.06,212.74,138.06z"/>
	<path d="M12.84,118.19c3.33,0,5.59,1.85,6.55,4.74h1.85c-0.93-3.92-4-6.51-8.4-6.51c-5.59,0-9.99,4.51-9.99,11.69
		c0,7.18,4.4,11.69,9.99,11.69c4.37,0,7.47-2.59,8.4-6.51h-1.85c-0.96,2.89-3.22,4.74-6.55,4.74c-4.7,0-8.07-3.85-8.07-9.92
		C4.77,122,8.14,118.19,12.84,118.19z"/>
	<path d="M301.91,130.66l-2.92-0.81c-1.96-0.55-2.96-1.11-2.96-2.66c0-1.92,1.74-2.89,3.77-2.89c2.33,0,3.66,0.96,4.29,2.89h1.81
		c-0.59-2.74-2.7-4.48-6.11-4.48c-3.03,0-5.55,1.7-5.55,4.55c0,2.37,1.55,3.51,3.89,4.14l3.07,0.85c2.07,0.59,3.03,1.52,3.03,2.92
		c0,2.07-1.78,3.03-4,3.03c-2.26,0-3.92-1-4.59-3h-1.85c0.52,2.89,3.11,4.59,6.4,4.59c3.33,0,5.81-1.7,5.81-4.66
		C306.02,132.99,304.72,131.4,301.91,130.66z"/>
	<path d="M257.29,122.7c-4.48,0-7.25,3.66-7.25,8.55c0,5.11,2.96,8.55,7.29,8.55c3.44,0,5.73-2.07,6.36-5.11h-1.78
		c-0.52,2.18-2.26,3.48-4.59,3.48c-3.18,0-5.44-2.59-5.48-6.77h12.1v-0.67C263.95,126.07,261.66,122.7,257.29,122.7z M251.93,129.95
		c0.37-3.44,2.4-5.62,5.36-5.62c3.26,0,4.7,2.74,4.81,5.62H251.93z"/>
	<path d="M31.41,122.7c-4.48,0-7.25,3.66-7.25,8.55c0,5.11,2.96,8.55,7.29,8.55c3.44,0,5.73-2.07,6.36-5.11h-1.78
		c-0.52,2.18-2.26,3.48-4.59,3.48c-3.18,0-5.44-2.59-5.48-6.77h12.1v-0.67C38.07,126.07,35.78,122.7,31.41,122.7z M26.05,129.95
		c0.37-3.44,2.4-5.62,5.36-5.62c3.26,0,4.7,2.74,4.81,5.62H26.05z"/>
	<path d="M136.41,122.7c-2.33,0-4.26,1.41-5.25,2.96v-2.63h-1.85v16.43h1.85v-11.51c0.81-1.96,2.66-3.55,4.92-3.55
		c2.92,0,4.22,1.89,4.22,4.44v10.62h1.81v-10.88C142.11,125.11,140.15,122.7,136.41,122.7z"/>
	<path d="M192.91,116.41c-5.03,0-8.36,4.77-8.36,11.69c0,6.92,3.33,11.69,8.36,11.69c4.99,0,8.33-4.77,8.33-11.69
		C201.24,121.18,197.91,116.41,192.91,116.41z M192.91,138.06c-4.03,0-6.47-4.11-6.47-9.95c0-5.85,2.44-9.95,6.47-9.95
		c4.03,0,6.48,4.11,6.48,9.95C199.39,133.95,196.95,138.06,192.91,138.06z"/>
	<polygon points="171.93,120.07 171.93,122.04 177.89,118.96 177.89,139.46 179.74,139.46 179.74,116.71 178.59,116.71 	"/>
	<path d="M72.92,122.7c-2.26,0-4.18,1.37-5.11,2.78v-10.06H66v24.05h1.81v-2.44c0.92,1.41,2.85,2.77,5.11,2.77
		c4.85,0,7.18-4,7.18-8.55C80.1,126.7,77.77,122.7,72.92,122.7z M72.78,138.09c-2,0-3.85-1.15-4.96-3.26v-7.18
		c1.11-2.11,2.96-3.26,4.96-3.26c3.44,0,5.48,2.89,5.48,6.84S76.22,138.09,72.78,138.09z"/>
	<path d="M158.13,125.44c-0.92-1.41-2.81-2.74-5.07-2.74c-4.77,0-7.07,3.96-7.07,8.33c0,4.4,2.29,8.33,7.07,8.33
		c2.26,0,4.14-1.3,5.07-2.7v1.74c0,4-1.81,6.11-5.07,6.11c-2.52,0-4.33-1.11-4.88-3.4h-1.85c0.59,3.11,2.96,4.99,6.73,4.99
		c4.11,0,6.92-2.63,6.92-7.81v-15.24h-1.85V125.44z M158.13,134.5c-1.07,2.04-2.89,3.18-4.88,3.18c-3.4,0-5.4-2.74-5.4-6.66
		c0-3.89,2-6.62,5.4-6.62c2,0,3.81,1.15,4.88,3.18V134.5z"/>
	<circle cx="123.13" cy="118.04" r="1.26"/>
	<path d="M86.02,125.66v-2.63h-1.85v16.43h1.85v-11.47c0.78-2.11,2.37-3.55,4.37-3.55c0.59,0,1.07,0.11,1.52,0.3v-1.81
		c-0.37-0.11-0.81-0.22-1.44-0.22C88.43,122.7,86.76,124.03,86.02,125.66z"/>
	<rect x="122.21" y="123.03" width="1.85" height="16.43"/>
	<path d="M100.3,122.7c-2.89,0-5.18,1.66-5.81,4.44h1.81c0.63-1.92,1.96-2.81,4-2.81c2.63,0,4.11,1.67,4.11,4.11v2.92
		c-0.74-0.81-2.55-1.74-4.48-1.74c-3.4,0-6.14,2-6.14,5.03c0,3.15,2.74,5.07,6.07,5.07c2.03,0,3.85-0.96,4.55-1.81v1.55h1.78v-11.1
		C106.19,124.92,103.97,122.7,100.3,122.7z M104.41,135.73c-0.52,1.41-2.37,2.44-4.37,2.44c-2.33,0-4.51-1.18-4.51-3.52
		s2.18-3.48,4.51-3.48c2,0,3.85,1.04,4.37,2.44V135.73z"/>
	<path d="M113.77,135.47v-10.84h4.26v-1.59h-4.26v-4.22h-1.81v4.22h-2.78v1.59h2.78v11.03c0,2.81,1.59,4.14,4,4.14
		c0.89,0,1.81-0.22,2.44-0.55v-1.74c-0.63,0.37-1.44,0.63-2.26,0.63C114.59,138.13,113.77,137.32,113.77,135.47z"/>
	<path d="M273.27,122.7c-2.89,0-5.18,1.66-5.81,4.44h1.81c0.63-1.92,1.96-2.81,4-2.81c2.63,0,4.11,1.67,4.11,4.11v2.92
		c-0.74-0.81-2.55-1.74-4.48-1.74c-3.4,0-6.14,2-6.14,5.03c0,3.15,2.74,5.07,6.07,5.07c2.03,0,3.85-0.96,4.55-1.81v1.55h1.78v-11.1
		C279.16,124.92,276.94,122.7,273.27,122.7z M277.38,135.73c-0.52,1.41-2.37,2.44-4.37,2.44c-2.33,0-4.51-1.18-4.51-3.52
		s2.18-3.48,4.51-3.48c2,0,3.85,1.04,4.37,2.44V135.73z"/>
</g>
</svg>
