<svg xmlns="http://www.w3.org/2000/svg" width="164.958" height="50" viewBox="0 0 164.958 50"><title>Barnes</title><path d="M16.876 20.374c0-1.625-1.125-2-2.875-2h-3v4.5h4.25a2.7 2.7 0 0 0 1.626-2.5zM14.75 27H11v4.627h3.375c2.124 0 3.126-.875 3.126-2.376 0-1.625-1-2.25-2.75-2.25z"/><path d="M0 5v41h26V5zm15.876 31H5V14h10.376c4.5 0 7.126 2.124 7.126 5.624a5.337 5.337 0 0 1-3 4.626 5.33 5.33 0 0 1 3.626 5.5c-.002 3.5-2.753 6.25-7.252 6.25zM59 0v14h9.3c4.18.234 7.377 2.08 7.377 6.382a6.977 6.977 0 0 1-3.812 6.393L77 36h-6.067l-3.99-7.5H64.01V36H59l.158 14H106V0zm42 36h-5l-8-13v13h-6V14h6l8 13V14h5z"/><path d="M70.142 21.364c0-2.09-.984-2.826-3.2-2.826h-2.934v5.778h4.166a3.248 3.248 0 0 0 1.968-2.952z"/><g><path d="M33 10v11.105L35.38 14h6.365L48.8 36h-5.84l-1.168-3.993L34.59 32l-1.583 4.333V40H52V10H33"/><path d="M35.8 28h4.843l-2.39-8.234L35.8 28"/></g><path d="M113 10l.15 4H126v4h-8v5h7v4h-7v5h9v4h-14v4l18-.103V10h-18"/><g><path d="M147.954 29.725c0-1.353-.615-1.782-2.83-2.458l-2.456-.737A8.023 8.023 0 0 1 139 24.473v6.136a13.808 13.808 0 0 0 5.265 1.082c2.828 0 3.69-.738 3.69-1.967z"/><path d="M139 5v11.382c1.533-1.557 4.155-2.4 7.478-2.4A13.164 13.164 0 0 1 152 15.314v4.208h-.236a13.06 13.06 0 0 0-5.532-1.108c-1.722 0-3.2.492-3.2 1.722s.77 1.6 1.6 1.844l2.46.737c2.825.86 6.392 1.844 6.392 6.763 0 4.057-3.073 6.64-9.22 6.64a15.572 15.572 0 0 1-5.266-.99V46h25.958V5z"/></g></svg>
