<?xml version="1.0" encoding="utf-8"?>
<!-- Generator: Adobe Illustrator 26.0.2, SVG Export Plug-In . SVG Version: 6.00 Build 0)  -->
<svg fill="currentColor" version="1.1" id="Layer_1" xmlns="http://www.w3.org/2000/svg" xmlns:xlink="http://www.w3.org/1999/xlink" x="0px" y="0px"
	 viewBox="0 0 697.8 83.89" style="enable-background:new 0 0 597.8 83.89;" xml:space="preserve">
<g>
	<g>
		<path d="M29.79,34.88c0-2.43-1.69-3-4.31-3H20.6v6.75h6.74C29.22,37.88,29.79,36.01,29.79,34.88"/>
		<path d="M26.6,44.81H20.6v6.94h5.44c3.18,0,4.68-1.32,4.68-3.57C30.72,45.75,29.22,44.81,26.6,44.81"/>
		<path d="M28.29,58.29h-16.3V25.33h15.55c6.74,0,10.67,3.18,10.67,8.42c0,3-2.05,5.81-4.5,6.94c2.62,0.93,5.44,3.18,5.44,8.24
			C39.15,54.18,35.03,58.29,28.29,58.29 M43.34,10.67H3.6v62.55h39.73V10.67z"/>
	</g>
	<polygon points="54.7,33.33 57.4,25.33 67.33,25.33 77.63,57.55 77.63,58.29 69.01,58.29 67.42,52.86 56.18,52.86 54.7,57.92 
		54.7,64.43 82.26,64.43 82.26,19.46 54.7,19.46 	"/>
	<polygon points="58.1,46.5 65.59,46.5 61.9,33.75 	"/>
	<g>
		<path d="M110.38,36.19c0-3.19-1.5-4.31-4.87-4.31h-3.94v8.81h5.81C109.44,39.75,110.38,37.88,110.38,36.19"/>
		<path d="M157.92,58.3h-8.61l-12.18-19.2v19.2h-8.62V25.33h8.62l12.18,19.43V25.33h8.61V58.3z M164.62,3.18H93.65v22.15h13.93
			c6.37,0,11.24,2.81,11.24,9.37c0,4.31-2.06,7.68-5.81,9.73l7.3,13.31v0.56h-8.81l-5.99-11.24h-3.93V58.3h-7.93v22.42h70.98V3.18z"
			/>
	</g>
	<polygon points="175.99,25.33 197.82,25.33 197.82,31.88 184.14,31.88 184.14,37.88 195.95,37.88 195.95,44.62 184.14,44.62 
		184.14,51.75 198.19,51.75 198.19,58.29 175.99,58.29 175.99,64.43 203.43,64.43 203.43,19.46 175.99,19.46 	"/>
	<g>
		<path d="M228.42,48.91c0-2.06-0.94-2.71-4.32-3.74l-3.74-1.13c-1.84-0.56-3.99-1.41-5.59-3.13v9.35c2.01,0.94,5.23,1.65,8.02,1.65
			C227.11,51.91,228.42,50.78,228.42,48.91"/>
		<path d="M214.78,28.58c2.33-2.37,6.33-3.65,11.4-3.65c2.62,0,6.93,0.94,8.8,2.25v6.18h-0.75c-1.87-1.13-5.81-1.68-8.43-1.68
			c-2.62,0-4.87,0.75-4.87,2.62s1.17,2.43,2.43,2.81l3.74,1.12c4.31,1.32,9.74,2.81,9.74,10.3c0,6.18-4.68,10.12-14.05,10.12
			c-2.26,0-5.67-0.53-8.02-1.5V73.2h39.98V10.65h-39.98V28.58z"/>
		<path d="M574.28,39.41v-2.62h-1.85V53.2h1.85V41.74c0.77-2.11,2.37-3.55,4.36-3.55c0.59,0,1.07,0.11,1.51,0.3v-1.81
			c-0.37-0.11-0.81-0.22-1.44-0.22C576.68,36.46,575.02,37.79,574.28,39.41"/>
		<path d="M338.41,43.7c0.37-3.44,2.4-5.62,5.36-5.62c3.25,0,4.69,2.73,4.8,5.62H338.41z M343.77,36.46c-4.47,0-7.24,3.66-7.24,8.54
			c0,5.1,2.96,8.54,7.28,8.54c3.44,0,5.73-2.07,6.36-5.1h-1.77c-0.52,2.18-2.25,3.47-4.58,3.47c-3.18,0-5.43-2.58-5.47-6.76h12.08
			v-0.67C350.42,39.82,348.13,36.46,343.77,36.46"/>
	</g>
	<rect x="330.61" y="29.18" width="1.85" height="24.02"/>
	<polygon points="529.05,41.78 521.88,30.51 519.81,30.51 528.05,43.51 528.05,53.2 529.93,53.2 529.93,43.51 538.21,30.51 
		536.18,30.51 	"/>
	<g>
		<path d="M501.04,51.79c-4.03,0-6.47-4.1-6.47-9.94c0-5.84,2.44-9.94,6.47-9.94c4.03,0,6.47,4.1,6.47,9.94
			C507.5,47.69,505.06,51.79,501.04,51.79 M501.04,30.17c-5.03,0-8.35,4.77-8.35,11.68c0,6.91,3.33,11.68,8.35,11.68
			c4.99,0,8.31-4.77,8.31-11.68C509.35,34.94,506.02,30.17,501.04,30.17"/>
		<path d="M301.38,31.95c3.33,0,5.58,1.85,6.54,4.73h1.85c-0.92-3.92-3.99-6.5-8.39-6.5c-5.58,0-9.98,4.51-9.98,11.68
			c0,7.17,4.4,11.68,9.98,11.68c4.36,0,7.47-2.59,8.39-6.5h-1.85c-0.96,2.88-3.21,4.73-6.54,4.73c-4.69,0-8.06-3.84-8.06-9.9
			C293.32,35.75,296.69,31.95,301.38,31.95"/>
		<path d="M590.09,44.4l-2.92-0.81c-1.96-0.55-2.96-1.11-2.96-2.66c0-1.92,1.74-2.88,3.77-2.88c2.33,0,3.66,0.96,4.28,2.88h1.81
			c-0.59-2.73-2.7-4.47-6.1-4.47c-3.03,0-5.54,1.7-5.54,4.54c0,2.37,1.55,3.51,3.88,4.14l3.07,0.85c2.07,0.59,3.03,1.52,3.03,2.92
			c0,2.07-1.77,3.03-3.99,3.03c-2.26,0-3.92-1-4.58-2.99H582c0.52,2.88,3.1,4.58,6.39,4.58c3.33,0,5.8-1.7,5.8-4.66
			C594.19,46.73,592.9,45.14,590.09,44.4"/>
		<path d="M540.17,43.7c0.37-3.44,2.4-5.62,5.36-5.62c3.25,0,4.69,2.73,4.8,5.62H540.17z M545.53,36.46c-4.47,0-7.24,3.66-7.24,8.54
			c0,5.1,2.96,8.54,7.28,8.54c3.44,0,5.73-2.07,6.35-5.1h-1.77c-0.52,2.18-2.25,3.47-4.58,3.47c-3.18,0-5.43-2.58-5.47-6.76h12.08
			v-0.67C552.18,39.82,549.89,36.46,545.53,36.46"/>
		<path d="M314.57,43.7c0.37-3.44,2.4-5.62,5.36-5.62c3.25,0,4.69,2.73,4.8,5.62H314.57z M319.93,36.46c-4.47,0-7.24,3.66-7.24,8.54
			c0,5.1,2.96,8.54,7.28,8.54c3.44,0,5.73-2.07,6.36-5.1h-1.77c-0.52,2.18-2.25,3.47-4.58,3.47c-3.18,0-5.43-2.58-5.47-6.76h12.08
			v-0.67C326.58,39.82,324.29,36.46,319.93,36.46"/>
		<path d="M424.8,36.46c-2.33,0-4.25,1.4-5.25,2.96v-2.63h-1.85V53.2h1.85V41.7c0.81-1.96,2.66-3.55,4.92-3.55
			c2.92,0,4.21,1.88,4.21,4.43V53.2h1.81V42.33C430.49,38.86,428.53,36.46,424.8,36.46"/>
		<path d="M481.23,51.79c-4.03,0-6.47-4.1-6.47-9.94c0-5.84,2.44-9.94,6.47-9.94c4.03,0,6.47,4.1,6.47,9.94
			C487.7,47.69,485.26,51.79,481.23,51.79 M481.23,30.17c-5.03,0-8.35,4.77-8.35,11.68c0,6.91,3.33,11.68,8.35,11.68
			c4.99,0,8.31-4.77,8.31-11.68C489.54,34.94,486.22,30.17,481.23,30.17"/>
	</g>
	<polygon points="460.28,33.83 460.28,35.79 466.23,32.72 466.23,53.2 468.07,53.2 468.07,30.47 466.93,30.47 	"/>
	<g>
		<path d="M361.24,51.83c-2,0-3.84-1.14-4.95-3.25v-7.17c1.11-2.11,2.96-3.25,4.95-3.25c3.44,0,5.47,2.88,5.47,6.84
			C366.71,48.95,364.68,51.83,361.24,51.83 M361.39,36.46c-2.25,0-4.17,1.37-5.1,2.77V29.18h-1.81V53.2h1.81v-2.44
			c0.93,1.4,2.85,2.77,5.1,2.77c4.84,0,7.17-3.99,7.17-8.54C368.56,40.45,366.23,36.46,361.39,36.46"/>
		<path d="M446.49,48.24c-1.07,2.03-2.88,3.18-4.88,3.18c-3.4,0-5.4-2.73-5.4-6.65c0-3.88,2-6.61,5.4-6.61c2,0,3.81,1.15,4.88,3.18
			V48.24z M446.49,39.19c-0.92-1.4-2.81-2.73-5.06-2.73c-4.77,0-7.06,3.95-7.06,8.31c0,4.4,2.29,8.32,7.06,8.32
			c2.25,0,4.14-1.29,5.06-2.7v1.74c0,3.99-1.81,6.1-5.06,6.1c-2.51,0-4.33-1.11-4.88-3.4h-1.85c0.59,3.1,2.96,4.99,6.73,4.99
			c4.1,0,6.91-2.62,6.91-7.8V36.79h-1.85V39.19z"/>
		<path d="M411.54,30.54c-0.7,0-1.26,0.59-1.26,1.26c0,0.7,0.56,1.26,1.26,1.26c0.7,0,1.26-0.56,1.26-1.26
			C412.79,31.13,412.24,30.54,411.54,30.54"/>
		<path d="M374.47,39.41v-2.62h-1.85V53.2h1.85V41.74c0.77-2.11,2.37-3.55,4.36-3.55c0.59,0,1.07,0.11,1.51,0.3v-1.81
			c-0.37-0.11-0.81-0.22-1.44-0.22C376.87,36.46,375.21,37.79,374.47,39.41"/>
	</g>
	<rect x="410.61" y="36.79" width="1.85" height="16.41"/>
	<g>
		<path d="M392.84,49.46c-0.52,1.4-2.37,2.44-4.36,2.44c-2.33,0-4.51-1.18-4.51-3.51c0-2.33,2.18-3.47,4.51-3.47
			c1.99,0,3.84,1.03,4.36,2.44V49.46z M388.74,36.46c-2.88,0-5.17,1.66-5.8,4.43h1.81c0.63-1.92,1.96-2.81,3.99-2.81
			c2.62,0,4.1,1.66,4.1,4.1v2.92c-0.74-0.81-2.55-1.74-4.47-1.74c-3.4,0-6.13,2-6.13,5.03c0,3.14,2.73,5.06,6.06,5.06
			c2.03,0,3.84-0.96,4.54-1.81v1.55h1.77V42.11C394.61,38.67,392.39,36.46,388.74,36.46"/>
		<path d="M402.19,49.2V38.38h4.25v-1.59h-4.25v-4.21h-1.81v4.21h-2.77v1.59h2.77v11.01c0,2.81,1.59,4.14,3.99,4.14
			c0.89,0,1.81-0.22,2.44-0.55v-1.74c-0.63,0.37-1.44,0.63-2.25,0.63C403,51.87,402.19,51.05,402.19,49.2"/>
		<path d="M565.59,49.46c-0.52,1.4-2.37,2.44-4.36,2.44c-2.33,0-4.51-1.18-4.51-3.51c0-2.33,2.18-3.47,4.51-3.47
			c1.99,0,3.84,1.03,4.36,2.44V49.46z M561.49,36.46c-2.88,0-5.17,1.66-5.8,4.43h1.81c0.63-1.92,1.96-2.81,3.99-2.81
			c2.62,0,4.1,1.66,4.1,4.1v2.92c-0.74-0.81-2.55-1.74-4.47-1.74c-3.4,0-6.13,2-6.13,5.03c0,3.14,2.73,5.06,6.06,5.06
			c2.03,0,3.84-0.96,4.54-1.81v1.55h1.77V42.11C567.37,38.67,565.15,36.46,561.49,36.46"/>
	</g>
</g>
</svg>
